<svg xmlns="http://www.w3.org/2000/svg" viewBox="0 0 64 64" fill="none">
  <rect width="64" height="64" rx="14" fill="#070b12"/>
  <rect x="2" y="2" width="60" height="60" rx="12" stroke="#22d3a6" stroke-width="2" opacity="0.5"/>
  <path d="M18 40V24h8.5c5.2 0 8.5 2.8 8.5 7.2 0 2.8-1.4 5-3.8 6.2L38 40h-5.2l-5.4-5.4H23V40H18zm5-9.2h3.2c2.2 0 3.5-1.1 3.5-2.9s-1.3-2.9-3.5-2.9H23v5.8z" fill="#22d3a6"/>
  <path d="M40 40l6-16h5l6 16h-5.2l-1-2.8h-5.6l-1 2.8H40zm8.2-6.8h3.6L50 28.2l-1.8 5z" fill="#8b9bb3"/>
</svg>
